<svg xmlns="http://www.w3.org/2000/svg" width="432.855" height="212.159" viewBox="0 0 432.855 212.159">
  <g id="Group_56" data-name="Group 56" transform="translate(-251.991 -320.154)">
    <path id="Path_34" data-name="Path 34" d="M311.286,321.23s5,10.482,36.112,21.08c32.332,11.011,68.6,14.713,68.6,14.713" fill="none" stroke="#fff" stroke-miterlimit="10" stroke-width="5"/>
    <path id="Path_35" data-name="Path 35" d="M253.146,389.644s23.047-12,47.868-13.945c19.163-1.5,28.7,1.4,110.65,18.448" fill="none" stroke="#fff" stroke-miterlimit="10" stroke-width="5"/>
    <path id="Path_36" data-name="Path 36" d="M415.343,365.352s2.066-5.949,5.708-4.973c1.845.494,3.54,3.94,3.543,9.964.005,9.373-3.679,22.969-8.6,22.969-3.228,0-5.7-8.355-4.329-17.327" fill="none" stroke="#fff" stroke-miterlimit="10" stroke-width="3"/>
    <path id="Path_37" data-name="Path 37" d="M422.478,387.115s14.113-.636,24.383,16.872c7.457,12.714,12.114,19.611,21.894,19.8" fill="none" stroke="#fff" stroke-miterlimit="10" stroke-width="5"/>
    <path id="Path_38" data-name="Path 38" d="M423.288,387.1s20.545-23.445,56.871,31.785c23.728,36.075,32.474,57.313,58.224,66.906,20.808,7.753,33.926-6.947,37.652-14.555,5.5-11.222,3.65-16.02,9.514-20.851,4.877-4.019,12.146.774,22.11-3.141,6.652-2.613,9.136-11.243,3.16-20.8-3.277-5.243.44-9.7,5.879-8.91" fill="none" stroke="#fff" stroke-miterlimit="10" stroke-width="6"/>
    <path id="Path_39" data-name="Path 39" d="M491.757,434.006c13.538,17.383,32.306,36.293,59.678,32.288,17.534-2.565,25.263-14.744,29.11-28.346" fill="none" stroke="#fff" stroke-miterlimit="10" stroke-width="4"/>
    <path id="Path_40" data-name="Path 40" d="M513.855,459.885s34.568,35.7,58.616,6.409" fill="none" stroke="#fff" stroke-miterlimit="10" stroke-width="4"/>
    <path id="Path_41" data-name="Path 41" d="M430.813,385.825c11.36-6.588,36.334,24.588,49.412,35.784,28.361,24.278,58,37.692,89.841,22.8" fill="none" stroke="#fff" stroke-miterlimit="10" stroke-width="4"/>
    <path id="Path_42" data-name="Path 42" d="M580.631,423.67c-2.52-3.99-7.274-1.689-10.654-3.366-5.347-2.654-4.17-11.063,2.847-11.666,8.949-.769,9.21,16.064,9.17,17.712" fill="none" stroke="#fff" stroke-miterlimit="10" stroke-width="3"/>
    <path id="Path_43" data-name="Path 43" d="M584.766,437.537c5.054-4.568,6.422-7.76,2.432-16.17-2.635-5.552,1.26-13.5,8.97-12.7,5.863.61,12.77,7.1,5.875,16.826-3.582,5.052-9.585,9.45-12.617,10.425" fill="none" stroke="#fff" stroke-miterlimit="10" stroke-width="3"/>
    <path id="Path_44" data-name="Path 44" d="M475.017,449.6c3.555-4.938,16.74-9.185,33.479,16.69" fill="none" stroke="#fff" stroke-miterlimit="10" stroke-width="3"/>
    <path id="Path_45" data-name="Path 45" d="M463.682,415.1c1.542-6.191,14.621-23.637,21.341-32.616,20.59-27.508,43.015-48.593,48.943-52.87,3.242-2.34,5.608-4.945,14.278-1.491,10.788,4.3,54.439,28.612,71.514,53.394,12.9,18.717,10.154,42.421,1.567,66.891-2.277,6.489-3.253,13.271,2.716,22.112,9.69,14.354,28.74,28.488,34.857,34.215" fill="none" stroke="#fff" stroke-miterlimit="10" stroke-width="5"/>
    <path id="Path_46" data-name="Path 46" d="M507.291,490.92c7.49,6.765,39.03,15.113,68.738-3.965,16.2-10.4,37.111-29.026,46.658-58.546" fill="none" stroke="#fff" stroke-miterlimit="10" stroke-width="4"/>
    <path id="Path_47" data-name="Path 47" d="M541.943,332.223c-7.164,21.291-17.076,37.663-37.463,61.924-15.013,17.865-24.576,30.779-47.649,46.134,0,0,23.63,48.379,61.462,62.657,19.5,7.362,43,4.634,63.81-13.153,17.729-15.152,33.8-10.87,44.212-3.552,16.357,11.5,46.2,35.627,56.985,44.116" fill="none" stroke="#fff" stroke-miterlimit="10" stroke-width="5"/>
  </g>
</svg>
